<svg width="655" height="206" viewBox="0 0 655 206" fill="none" xmlns="http://www.w3.org/2000/svg">
<path d="M43.0119 14.5063L45.0957 6.71881C47.6145 7.22637 50.1897 5.17349 50.9979 2.15316L50.9979 2.15312C51.059 1.92467 51.1086 1.69642 51.1472 1.46928L139.666 25.2182C138.445 34.3194 142.697 42.7434 150.098 44.729L150.159 44.5048L150.098 44.729C150.507 44.8385 150.918 44.9263 151.329 44.9929L149.231 52.8343C146.712 52.3264 144.137 54.3793 143.329 57.3996C142.521 60.4204 143.726 63.4874 146.16 64.3084L144.076 72.0955C141.557 71.5869 138.981 73.64 138.173 76.661C137.364 79.6818 138.57 82.7493 141.006 83.5698L138.922 91.3562C136.404 90.8493 133.83 92.9021 133.021 95.922C132.213 98.9417 133.418 102.008 135.852 102.83L133.768 110.618C131.249 110.11 128.674 112.163 127.866 115.183C127.057 118.204 128.263 121.271 130.697 122.092L128.613 129.879C126.095 129.371 123.52 131.424 122.712 134.444C121.904 137.464 123.108 140.531 125.543 141.353L123.459 149.139C120.941 148.633 118.367 150.686 117.558 153.705C116.75 156.725 117.955 159.791 120.388 160.613L118.305 168.401C115.786 167.893 113.211 169.946 112.402 172.966C111.594 175.987 112.799 179.054 115.234 179.875L113.152 187.656C105.821 185.847 98.0659 190.993 94.6166 199.393L4.66889 175.261C5.35128 172.32 4.14623 169.394 1.77665 168.595L3.86054 160.808C6.37885 161.315 8.95372 159.262 9.76192 156.242C10.5702 153.222 9.36523 150.155 6.93109 149.334L9.0151 141.546C11.5339 142.054 14.1095 140.001 14.9179 136.981C15.7263 133.96 14.5207 130.893 12.0856 130.072L14.1694 122.285C16.688 122.793 19.2632 120.74 20.0715 117.72C20.8798 114.699 19.6746 111.632 17.24 110.811L19.3238 103.024C21.8421 103.532 24.4169 101.479 25.2251 98.4585C26.0334 95.4385 24.8284 92.3718 22.3943 91.5504L24.4781 83.7634C26.9962 84.2699 29.5706 82.2175 30.3788 79.1975C31.1869 76.1779 29.9823 73.1112 27.5486 72.2895L29.6327 64.5019C32.1512 65.0096 34.7264 62.9567 35.5347 59.9365C36.343 56.9159 35.1378 53.849 32.7032 53.0278L34.7871 45.2406C37.3061 45.7494 39.8822 43.6963 40.6907 40.6754C41.4991 37.6543 40.2933 34.5868 37.8577 33.7664L39.9413 25.9802C42.4596 26.4867 45.0337 24.434 45.8419 21.4143C46.6501 18.3944 45.4457 15.3281 43.0119 14.5063Z" fill="url(#paint0_linear_3830_9092)" stroke="black" stroke-width="0.5"/>
<path d="M282.688 139.613V49.8814H250.576L231.901 99.3887L213.09 49.8814H180.979V139.613H204.088V80.2853L226.795 139.613H237.006L259.579 80.2853V139.613H282.688ZM304.583 68.8503C311.166 68.8503 316.54 63.469 316.54 56.877C316.54 50.285 311.166 45.0383 304.583 45.0383C297.999 45.0383 292.759 50.285 292.759 56.877C292.759 63.469 297.999 68.8503 304.583 68.8503ZM314.928 139.613V74.6351H294.237V139.613H314.928ZM390.522 139.613V93.6039C390.522 81.6307 383.804 73.0207 369.159 73.0207C358.141 73.0207 350.483 77.9983 346.586 82.5724V74.6351H325.895V139.613H346.586V97.6398C349.005 94.6801 353.036 91.3169 359.216 91.3169C365.665 91.3169 369.831 94.142 369.831 102.079V139.613H390.522ZM426.095 141.228C433.753 141.228 438.859 139.344 441.412 136.923L437.381 121.317C436.709 122.124 434.425 122.932 432.141 122.932C428.647 122.932 426.498 120.106 426.498 116.34V92.5276H439.665V74.6351H426.498V56.877H405.809V74.6351H395.06V92.5276H405.809V122.124C405.809 134.636 412.93 141.228 426.095 141.228ZM456.241 68.8503C462.825 68.8503 468.199 63.469 468.199 56.877C468.199 50.285 462.825 45.0383 456.241 45.0383C449.658 45.0383 444.418 50.285 444.418 56.877C444.418 63.469 449.658 68.8503 456.241 68.8503ZM466.587 139.613V74.6351H445.896V139.613H466.587ZM508.725 141.228C522.833 141.228 531.432 134.905 535.329 129.254L521.893 116.609C519.34 120.241 515.175 122.932 509.666 122.932C501.067 122.932 494.483 116.878 494.483 107.057C494.483 97.2362 501.067 91.3169 509.666 91.3169C515.175 91.3169 519.34 93.7384 521.893 97.5053L535.329 84.9939C531.432 79.2091 522.833 73.0207 508.725 73.0207C488.437 73.0207 473.389 86.7428 473.389 107.057C473.389 127.371 488.437 141.228 508.725 141.228ZM607.345 139.613L582.22 104.232L606.136 74.6351H581.145L561.394 100.599V49.8814H540.703V139.613H561.394V124.008L567.575 116.609L581.817 139.613H607.345ZM634.603 141.228C642.262 141.228 647.367 139.344 649.92 136.923L645.889 121.317C645.217 122.124 642.933 122.932 640.649 122.932C637.156 122.932 635.006 120.106 635.006 116.34V92.5276H648.173V74.6351H635.006V56.877H614.315V74.6351H603.566V92.5276H614.315V122.124C614.315 134.636 621.436 141.228 634.603 141.228Z" fill="#1D1D1D"/>
<defs>
<linearGradient id="paint0_linear_3830_9092" x1="77.8264" y1="84.3914" x2="106.098" y2="256.984" gradientUnits="userSpaceOnUse">
<stop stop-color="white"/>
<stop offset="1" stop-color="#6D6D6D"/>
</linearGradient>
</defs>
</svg>
