<svg width="151" height="199" viewBox="0 0 151 199" fill="none" xmlns="http://www.w3.org/2000/svg" class="dark:fill-white">
<path fill-rule="evenodd" clip-rule="evenodd" d="M43.9173 5.42026C46.329 6.06722 48.9431 4.12784 49.7564 1.08854C49.84 0.776082 49.9013 0.464164 49.9416 0.155273L138.944 24.034C137.636 33.1423 141.867 41.5301 149.163 43.4875C149.654 43.6191 150.148 43.7187 150.643 43.7873L148.41 52.1328H148.409C145.998 51.4858 143.384 53.4251 142.57 56.4642C141.757 59.5038 143.052 62.4921 145.464 63.1391H145.465L143.255 71.3942L143.253 71.3938C140.842 70.7468 138.228 72.6861 137.414 75.7257C136.601 78.7648 137.896 81.7531 140.308 82.4001L140.31 82.4009L138.101 90.6548C135.69 90.0082 133.076 91.9475 132.263 94.9867C131.45 98.0254 132.745 101.014 135.156 101.661L132.946 109.916H132.946C130.535 109.269 127.921 111.209 127.107 114.248C126.294 117.287 127.589 120.275 130.001 120.922H130.001L127.792 129.177C125.381 128.53 122.767 130.47 121.953 133.509C121.14 136.548 122.435 139.536 124.847 140.183L122.638 148.438C120.227 147.792 117.613 149.731 116.8 152.77C115.987 155.809 117.282 158.797 119.692 159.444L117.483 167.7C117.483 167.7 117.483 167.699 117.483 167.699C115.071 167.052 112.457 168.992 111.644 172.031C110.831 175.07 112.126 178.059 114.538 178.705C114.538 178.706 114.538 178.706 114.538 178.706L112.329 186.96C105.033 185.003 97.1801 190.149 93.7653 198.692L3.36683 174.438C4.18017 171.399 2.88467 168.411 0.473248 167.764L0.472656 167.764L2.68165 159.509C5.09301 160.156 7.70709 158.216 8.52042 155.177C9.33376 152.138 8.03833 149.15 5.62704 148.503L7.83616 140.248H7.83746C10.2489 140.895 12.863 138.955 13.6764 135.916C14.4897 132.877 13.1942 129.889 10.7828 129.242L10.7816 129.241L12.9905 120.987H12.9911C15.4025 121.634 18.0167 119.694 18.83 116.655C19.6434 113.616 18.3479 110.628 15.9365 109.981H15.9359L18.1449 101.726C20.5562 102.373 23.1703 100.433 23.9836 97.3939C24.797 94.3548 23.5015 91.3665 21.0903 90.7195L23.2992 82.4648C25.7104 83.111 28.324 81.1721 29.1373 78.1329C29.9505 75.0942 28.6554 72.1059 26.2446 71.4585L28.4538 63.2034H28.4543C30.8657 63.8504 33.4799 61.911 34.2932 58.8719C35.1065 55.8324 33.8111 52.8441 31.3997 52.1971H31.3992L33.6083 43.942L33.6102 43.9424C36.0216 44.5894 38.6358 42.65 39.4491 39.6108C40.2625 36.5715 38.967 33.5831 36.5556 32.9362L36.5536 32.9356L38.7624 24.6816C41.1738 25.3278 43.7871 23.3885 44.6004 20.3497C45.4137 17.3107 44.1188 14.3228 41.7079 13.6753L43.9168 5.42013L43.9173 5.42026Z"/>
</svg>